<mxfile host="app.diagrams.net" modified="2022-12-15T21:09:09.028Z" agent="5.0 (Windows NT 10.0; Win64; x64) AppleWebKit/537.36 (KHTML, like Gecko) Chrome/108.0.0.0 Safari/537.36" etag="8grzry5F2S_q2-6WjXar" version="20.7.3" type="github">
  <diagram id="C5RBs43oDa-KdzZeNtuy" name="Page-1">
    <mxGraphModel dx="1434" dy="756" grid="1" gridSize="10" guides="1" tooltips="1" connect="1" arrows="1" fold="1" page="1" pageScale="1" pageWidth="827" pageHeight="1169" math="0" shadow="0">
      <root>
        <mxCell id="WIyWlLk6GJQsqaUBKTNV-0" />
        <mxCell id="WIyWlLk6GJQsqaUBKTNV-1" parent="WIyWlLk6GJQsqaUBKTNV-0" />
        <mxCell id="kdFxsXRTXMtfBECGcENH-8" value="&lt;b&gt;Введение в программирование. Семинар 2. Домашнее задание. Задача 3**:&lt;br&gt;&lt;/b&gt;&lt;div&gt;&lt;div&gt;Найти сумму элементов массива, лежащих между максимальным и&amp;nbsp;&lt;span style=&quot;background-color: initial;&quot;&gt;минимальным по значению элементами&lt;/span&gt;&lt;/div&gt;&lt;/div&gt;" style="text;html=1;align=left;verticalAlign=middle;resizable=0;points=[];autosize=1;strokeColor=none;fillColor=none;" parent="WIyWlLk6GJQsqaUBKTNV-1" vertex="1">
          <mxGeometry x="120" y="50" width="630" height="40" as="geometry" />
        </mxCell>
        <mxCell id="kdFxsXRTXMtfBECGcENH-19" value="&lt;b&gt;Рябцев А.А.&lt;/b&gt;" style="text;html=1;align=left;verticalAlign=middle;resizable=0;points=[];autosize=1;strokeColor=none;fillColor=none;" parent="WIyWlLk6GJQsqaUBKTNV-1" vertex="1">
          <mxGeometry x="20" y="10" width="90" height="30" as="geometry" />
        </mxCell>
        <mxCell id="J1vwhCZDm-6XGJKoo7b1-52" value="" style="edgeStyle=orthogonalEdgeStyle;rounded=0;orthogonalLoop=1;jettySize=auto;html=1;" edge="1" parent="WIyWlLk6GJQsqaUBKTNV-1" source="J1vwhCZDm-6XGJKoo7b1-53" target="J1vwhCZDm-6XGJKoo7b1-56">
          <mxGeometry relative="1" as="geometry" />
        </mxCell>
        <mxCell id="J1vwhCZDm-6XGJKoo7b1-53" value="&lt;b&gt;Start&lt;/b&gt;" style="rounded=1;whiteSpace=wrap;html=1;fontSize=12;glass=0;strokeWidth=1;shadow=0;" vertex="1" parent="WIyWlLk6GJQsqaUBKTNV-1">
          <mxGeometry x="331" y="140" width="120" height="40" as="geometry" />
        </mxCell>
        <mxCell id="J1vwhCZDm-6XGJKoo7b1-54" value="&lt;div style=&quot;&quot;&gt;&lt;span style=&quot;background-color: initial;&quot;&gt;print(&#39;Сумма элементов массива, лежащих между максимальным и минимальным по значению элементами, равняется&#39;, &lt;b&gt;sumBetween&lt;/b&gt;)&lt;/span&gt;&lt;/div&gt;" style="rounded=1;whiteSpace=wrap;html=1;fontSize=12;glass=0;strokeWidth=1;shadow=0;align=center;" vertex="1" parent="WIyWlLk6GJQsqaUBKTNV-1">
          <mxGeometry x="850" y="497.5" width="423" height="60" as="geometry" />
        </mxCell>
        <mxCell id="J1vwhCZDm-6XGJKoo7b1-79" value="" style="edgeStyle=orthogonalEdgeStyle;rounded=0;orthogonalLoop=1;jettySize=auto;html=1;" edge="1" parent="WIyWlLk6GJQsqaUBKTNV-1" source="J1vwhCZDm-6XGJKoo7b1-56" target="J1vwhCZDm-6XGJKoo7b1-78">
          <mxGeometry relative="1" as="geometry" />
        </mxCell>
        <mxCell id="J1vwhCZDm-6XGJKoo7b1-56" value="&lt;div style=&quot;text-align: justify;&quot;&gt;nums = [3, 8, 1, 7, 2, 9, 6, 5]&lt;/div&gt;&lt;div style=&quot;text-align: justify;&quot;&gt;&lt;span style=&quot;background-color: initial;&quot;&gt;N = 8&lt;/span&gt;&lt;/div&gt;&lt;div style=&quot;text-align: justify;&quot;&gt;&lt;span style=&quot;background-color: initial;&quot;&gt;indexMax = 0&lt;/span&gt;&lt;/div&gt;&lt;div style=&quot;text-align: justify;&quot;&gt;&lt;span style=&quot;background-color: initial;&quot;&gt;indexMin = 0&lt;/span&gt;&lt;/div&gt;&lt;div style=&quot;text-align: justify;&quot;&gt;sumBetween = 0&lt;/div&gt;" style="shape=parallelogram;perimeter=parallelogramPerimeter;whiteSpace=wrap;html=1;fixedSize=1;" vertex="1" parent="WIyWlLk6GJQsqaUBKTNV-1">
          <mxGeometry x="280.5" y="220" width="221" height="100" as="geometry" />
        </mxCell>
        <mxCell id="J1vwhCZDm-6XGJKoo7b1-57" value="&lt;b&gt;&lt;u&gt;&lt;font color=&quot;#00cc00&quot;&gt;Да&lt;/font&gt;&lt;/u&gt;&lt;/b&gt;" style="text;html=1;align=center;verticalAlign=middle;resizable=0;points=[];autosize=1;strokeColor=none;fillColor=none;" vertex="1" parent="WIyWlLk6GJQsqaUBKTNV-1">
          <mxGeometry x="391" y="447.5" width="40" height="30" as="geometry" />
        </mxCell>
        <mxCell id="J1vwhCZDm-6XGJKoo7b1-58" value="&lt;b&gt;&lt;u&gt;&lt;font color=&quot;#cc0000&quot;&gt;Нет&lt;/font&gt;&lt;/u&gt;&lt;/b&gt;" style="text;html=1;align=center;verticalAlign=middle;resizable=0;points=[];autosize=1;strokeColor=none;fillColor=none;" vertex="1" parent="WIyWlLk6GJQsqaUBKTNV-1">
          <mxGeometry x="461.5" y="370" width="40" height="30" as="geometry" />
        </mxCell>
        <mxCell id="J1vwhCZDm-6XGJKoo7b1-60" value="&lt;b&gt;&lt;u&gt;&lt;font color=&quot;#cc0000&quot;&gt;Нет&lt;/font&gt;&lt;/u&gt;&lt;/b&gt;" style="text;html=1;align=center;verticalAlign=middle;resizable=0;points=[];autosize=1;strokeColor=none;fillColor=none;" vertex="1" parent="WIyWlLk6GJQsqaUBKTNV-1">
          <mxGeometry x="391" y="575" width="40" height="30" as="geometry" />
        </mxCell>
        <mxCell id="J1vwhCZDm-6XGJKoo7b1-64" value="" style="edgeStyle=orthogonalEdgeStyle;rounded=0;orthogonalLoop=1;jettySize=auto;html=1;" edge="1" parent="WIyWlLk6GJQsqaUBKTNV-1" source="J1vwhCZDm-6XGJKoo7b1-66" target="J1vwhCZDm-6XGJKoo7b1-72">
          <mxGeometry relative="1" as="geometry" />
        </mxCell>
        <mxCell id="J1vwhCZDm-6XGJKoo7b1-65" value="" style="edgeStyle=orthogonalEdgeStyle;rounded=0;orthogonalLoop=1;jettySize=auto;html=1;" edge="1" parent="WIyWlLk6GJQsqaUBKTNV-1" source="J1vwhCZDm-6XGJKoo7b1-66" target="J1vwhCZDm-6XGJKoo7b1-75">
          <mxGeometry relative="1" as="geometry" />
        </mxCell>
        <mxCell id="J1vwhCZDm-6XGJKoo7b1-66" value="nums[i] &lt;b&gt;&amp;gt;&lt;/b&gt;&amp;nbsp;nums[indexMax]" style="rhombus;whiteSpace=wrap;html=1;" vertex="1" parent="WIyWlLk6GJQsqaUBKTNV-1">
          <mxGeometry x="289" y="480" width="204" height="95" as="geometry" />
        </mxCell>
        <mxCell id="J1vwhCZDm-6XGJKoo7b1-68" value="" style="edgeStyle=orthogonalEdgeStyle;rounded=0;orthogonalLoop=1;jettySize=auto;html=1;exitX=0.5;exitY=1;exitDx=0;exitDy=0;" edge="1" parent="WIyWlLk6GJQsqaUBKTNV-1" source="J1vwhCZDm-6XGJKoo7b1-78" target="J1vwhCZDm-6XGJKoo7b1-66">
          <mxGeometry relative="1" as="geometry">
            <mxPoint x="391" y="447.5" as="sourcePoint" />
          </mxGeometry>
        </mxCell>
        <mxCell id="J1vwhCZDm-6XGJKoo7b1-71" value="" style="edgeStyle=orthogonalEdgeStyle;rounded=0;orthogonalLoop=1;jettySize=auto;html=1;" edge="1" parent="WIyWlLk6GJQsqaUBKTNV-1" source="J1vwhCZDm-6XGJKoo7b1-72" target="J1vwhCZDm-6XGJKoo7b1-74">
          <mxGeometry relative="1" as="geometry" />
        </mxCell>
        <mxCell id="J1vwhCZDm-6XGJKoo7b1-84" style="edgeStyle=orthogonalEdgeStyle;rounded=0;orthogonalLoop=1;jettySize=auto;html=1;entryX=0.093;entryY=0.135;entryDx=0;entryDy=0;entryPerimeter=0;" edge="1" parent="WIyWlLk6GJQsqaUBKTNV-1" source="J1vwhCZDm-6XGJKoo7b1-72" target="J1vwhCZDm-6XGJKoo7b1-78">
          <mxGeometry relative="1" as="geometry">
            <Array as="points">
              <mxPoint x="391" y="740" />
              <mxPoint x="40" y="740" />
              <mxPoint x="40" y="369" />
            </Array>
          </mxGeometry>
        </mxCell>
        <mxCell id="J1vwhCZDm-6XGJKoo7b1-72" value="nums[i] &lt;b&gt;&amp;lt;&lt;/b&gt;&amp;nbsp;nums[indexMin]" style="rhombus;whiteSpace=wrap;html=1;" vertex="1" parent="WIyWlLk6GJQsqaUBKTNV-1">
          <mxGeometry x="289" y="605" width="204" height="95" as="geometry" />
        </mxCell>
        <mxCell id="J1vwhCZDm-6XGJKoo7b1-73" value="&lt;b&gt;&lt;u&gt;&lt;font color=&quot;#cc0000&quot;&gt;Нет&lt;/font&gt;&lt;/u&gt;&lt;/b&gt;" style="text;html=1;align=center;verticalAlign=middle;resizable=0;points=[];autosize=1;strokeColor=none;fillColor=none;" vertex="1" parent="WIyWlLk6GJQsqaUBKTNV-1">
          <mxGeometry x="391" y="700" width="40" height="30" as="geometry" />
        </mxCell>
        <mxCell id="J1vwhCZDm-6XGJKoo7b1-85" style="edgeStyle=orthogonalEdgeStyle;rounded=0;orthogonalLoop=1;jettySize=auto;html=1;entryX=0;entryY=0.5;entryDx=0;entryDy=0;exitX=0.5;exitY=0;exitDx=0;exitDy=0;" edge="1" parent="WIyWlLk6GJQsqaUBKTNV-1" source="J1vwhCZDm-6XGJKoo7b1-74" target="J1vwhCZDm-6XGJKoo7b1-78">
          <mxGeometry relative="1" as="geometry">
            <Array as="points">
              <mxPoint x="118" y="400" />
            </Array>
          </mxGeometry>
        </mxCell>
        <mxCell id="J1vwhCZDm-6XGJKoo7b1-74" value="&lt;span style=&quot;text-align: justify;&quot;&gt;indexMin = i&lt;/span&gt;" style="rounded=0;whiteSpace=wrap;html=1;" vertex="1" parent="WIyWlLk6GJQsqaUBKTNV-1">
          <mxGeometry x="70" y="622.5" width="96" height="60" as="geometry" />
        </mxCell>
        <mxCell id="J1vwhCZDm-6XGJKoo7b1-86" style="edgeStyle=orthogonalEdgeStyle;rounded=0;orthogonalLoop=1;jettySize=auto;html=1;entryX=0.093;entryY=0.865;entryDx=0;entryDy=0;entryPerimeter=0;" edge="1" parent="WIyWlLk6GJQsqaUBKTNV-1" source="J1vwhCZDm-6XGJKoo7b1-75" target="J1vwhCZDm-6XGJKoo7b1-78">
          <mxGeometry relative="1" as="geometry">
            <Array as="points">
              <mxPoint x="198" y="431" />
            </Array>
          </mxGeometry>
        </mxCell>
        <mxCell id="J1vwhCZDm-6XGJKoo7b1-75" value="&lt;div style=&quot;text-align: justify;&quot;&gt;indexMax = i&lt;/div&gt;" style="rounded=0;whiteSpace=wrap;html=1;" vertex="1" parent="WIyWlLk6GJQsqaUBKTNV-1">
          <mxGeometry x="150" y="497.5" width="96" height="60" as="geometry" />
        </mxCell>
        <mxCell id="J1vwhCZDm-6XGJKoo7b1-76" value="&lt;b&gt;&lt;u&gt;&lt;font color=&quot;#00cc00&quot;&gt;Да&lt;/font&gt;&lt;/u&gt;&lt;/b&gt;" style="text;html=1;align=center;verticalAlign=middle;resizable=0;points=[];autosize=1;strokeColor=none;fillColor=none;" vertex="1" parent="WIyWlLk6GJQsqaUBKTNV-1">
          <mxGeometry x="249" y="497.5" width="40" height="30" as="geometry" />
        </mxCell>
        <mxCell id="J1vwhCZDm-6XGJKoo7b1-77" value="&lt;b&gt;&lt;u&gt;&lt;font color=&quot;#00cc00&quot;&gt;Да&lt;/font&gt;&lt;/u&gt;&lt;/b&gt;" style="text;html=1;align=center;verticalAlign=middle;resizable=0;points=[];autosize=1;strokeColor=none;fillColor=none;" vertex="1" parent="WIyWlLk6GJQsqaUBKTNV-1">
          <mxGeometry x="246" y="622.5" width="40" height="30" as="geometry" />
        </mxCell>
        <mxCell id="J1vwhCZDm-6XGJKoo7b1-88" value="" style="edgeStyle=orthogonalEdgeStyle;rounded=0;orthogonalLoop=1;jettySize=auto;html=1;" edge="1" parent="WIyWlLk6GJQsqaUBKTNV-1" source="J1vwhCZDm-6XGJKoo7b1-78" target="J1vwhCZDm-6XGJKoo7b1-87">
          <mxGeometry relative="1" as="geometry" />
        </mxCell>
        <mxCell id="J1vwhCZDm-6XGJKoo7b1-78" value="&lt;div style=&quot;text-align: justify;&quot;&gt;&lt;span style=&quot;background-color: initial;&quot;&gt;i = 0;&amp;nbsp;&lt;/span&gt;&lt;span style=&quot;background-color: initial;&quot;&gt;i &lt;b&gt;&amp;lt;&lt;/b&gt;&amp;nbsp;N; i++&lt;/span&gt;&lt;/div&gt;" style="shape=hexagon;perimeter=hexagonPerimeter2;whiteSpace=wrap;html=1;fixedSize=1;" vertex="1" parent="WIyWlLk6GJQsqaUBKTNV-1">
          <mxGeometry x="321" y="357.5" width="140" height="85" as="geometry" />
        </mxCell>
        <mxCell id="J1vwhCZDm-6XGJKoo7b1-90" value="" style="edgeStyle=orthogonalEdgeStyle;rounded=0;orthogonalLoop=1;jettySize=auto;html=1;" edge="1" parent="WIyWlLk6GJQsqaUBKTNV-1" source="J1vwhCZDm-6XGJKoo7b1-87" target="J1vwhCZDm-6XGJKoo7b1-89">
          <mxGeometry relative="1" as="geometry" />
        </mxCell>
        <mxCell id="J1vwhCZDm-6XGJKoo7b1-96" value="" style="edgeStyle=orthogonalEdgeStyle;rounded=0;orthogonalLoop=1;jettySize=auto;html=1;" edge="1" parent="WIyWlLk6GJQsqaUBKTNV-1" source="J1vwhCZDm-6XGJKoo7b1-87" target="J1vwhCZDm-6XGJKoo7b1-95">
          <mxGeometry relative="1" as="geometry" />
        </mxCell>
        <mxCell id="J1vwhCZDm-6XGJKoo7b1-87" value="indexMax&amp;nbsp;&lt;b&gt;&amp;gt;&lt;/b&gt;&amp;nbsp;indexMin" style="rhombus;whiteSpace=wrap;html=1;" vertex="1" parent="WIyWlLk6GJQsqaUBKTNV-1">
          <mxGeometry x="592.5" y="352.5" width="204" height="95" as="geometry" />
        </mxCell>
        <mxCell id="J1vwhCZDm-6XGJKoo7b1-93" value="" style="edgeStyle=orthogonalEdgeStyle;rounded=0;orthogonalLoop=1;jettySize=auto;html=1;" edge="1" parent="WIyWlLk6GJQsqaUBKTNV-1" source="J1vwhCZDm-6XGJKoo7b1-89" target="J1vwhCZDm-6XGJKoo7b1-92">
          <mxGeometry relative="1" as="geometry" />
        </mxCell>
        <mxCell id="J1vwhCZDm-6XGJKoo7b1-103" value="" style="edgeStyle=orthogonalEdgeStyle;rounded=0;orthogonalLoop=1;jettySize=auto;html=1;" edge="1" parent="WIyWlLk6GJQsqaUBKTNV-1" source="J1vwhCZDm-6XGJKoo7b1-89" target="J1vwhCZDm-6XGJKoo7b1-54">
          <mxGeometry relative="1" as="geometry" />
        </mxCell>
        <mxCell id="J1vwhCZDm-6XGJKoo7b1-89" value="&lt;div style=&quot;text-align: justify;&quot;&gt;&lt;span style=&quot;background-color: initial;&quot;&gt;i = indexMin + 1;&amp;nbsp;&lt;/span&gt;&lt;span style=&quot;background-color: initial;&quot;&gt;i &lt;b&gt;&amp;lt;&lt;/b&gt;&amp;nbsp;indexMax; i++&lt;/span&gt;&lt;/div&gt;" style="shape=hexagon;perimeter=hexagonPerimeter2;whiteSpace=wrap;html=1;fixedSize=1;" vertex="1" parent="WIyWlLk6GJQsqaUBKTNV-1">
          <mxGeometry x="584.5" y="495" width="220" height="65" as="geometry" />
        </mxCell>
        <mxCell id="J1vwhCZDm-6XGJKoo7b1-91" value="&lt;b&gt;&lt;u&gt;&lt;font color=&quot;#00cc00&quot;&gt;Да&lt;/font&gt;&lt;/u&gt;&lt;/b&gt;" style="text;html=1;align=center;verticalAlign=middle;resizable=0;points=[];autosize=1;strokeColor=none;fillColor=none;" vertex="1" parent="WIyWlLk6GJQsqaUBKTNV-1">
          <mxGeometry x="693.5" y="447.5" width="40" height="30" as="geometry" />
        </mxCell>
        <mxCell id="J1vwhCZDm-6XGJKoo7b1-94" style="edgeStyle=orthogonalEdgeStyle;rounded=0;orthogonalLoop=1;jettySize=auto;html=1;entryX=0;entryY=0.5;entryDx=0;entryDy=0;" edge="1" parent="WIyWlLk6GJQsqaUBKTNV-1" source="J1vwhCZDm-6XGJKoo7b1-92" target="J1vwhCZDm-6XGJKoo7b1-89">
          <mxGeometry relative="1" as="geometry">
            <Array as="points">
              <mxPoint x="540" y="653" />
              <mxPoint x="540" y="528" />
            </Array>
          </mxGeometry>
        </mxCell>
        <mxCell id="J1vwhCZDm-6XGJKoo7b1-92" value="&lt;div style=&quot;text-align: justify;&quot;&gt;sumBetween = sumBetween + nums[i]&lt;/div&gt;" style="rounded=0;whiteSpace=wrap;html=1;" vertex="1" parent="WIyWlLk6GJQsqaUBKTNV-1">
          <mxGeometry x="580" y="622.5" width="229" height="60" as="geometry" />
        </mxCell>
        <mxCell id="J1vwhCZDm-6XGJKoo7b1-99" value="" style="edgeStyle=orthogonalEdgeStyle;rounded=0;orthogonalLoop=1;jettySize=auto;html=1;" edge="1" parent="WIyWlLk6GJQsqaUBKTNV-1" source="J1vwhCZDm-6XGJKoo7b1-95" target="J1vwhCZDm-6XGJKoo7b1-98">
          <mxGeometry relative="1" as="geometry" />
        </mxCell>
        <mxCell id="J1vwhCZDm-6XGJKoo7b1-102" value="" style="edgeStyle=orthogonalEdgeStyle;rounded=0;orthogonalLoop=1;jettySize=auto;html=1;entryX=0.272;entryY=0.025;entryDx=0;entryDy=0;entryPerimeter=0;" edge="1" parent="WIyWlLk6GJQsqaUBKTNV-1" source="J1vwhCZDm-6XGJKoo7b1-95" target="J1vwhCZDm-6XGJKoo7b1-54">
          <mxGeometry relative="1" as="geometry" />
        </mxCell>
        <mxCell id="J1vwhCZDm-6XGJKoo7b1-95" value="&lt;div style=&quot;text-align: justify;&quot;&gt;&lt;span style=&quot;background-color: initial;&quot;&gt;i = indexMax + 1;&amp;nbsp;&lt;/span&gt;&lt;span style=&quot;background-color: initial;&quot;&gt;i &lt;b&gt;&amp;lt;&lt;/b&gt;&amp;nbsp;indexMin; i++&lt;/span&gt;&lt;/div&gt;" style="shape=hexagon;perimeter=hexagonPerimeter2;whiteSpace=wrap;html=1;fixedSize=1;" vertex="1" parent="WIyWlLk6GJQsqaUBKTNV-1">
          <mxGeometry x="854.5" y="367.5" width="220" height="65" as="geometry" />
        </mxCell>
        <mxCell id="J1vwhCZDm-6XGJKoo7b1-97" value="&lt;b&gt;&lt;u&gt;&lt;font color=&quot;#cc0000&quot;&gt;Нет&lt;/font&gt;&lt;/u&gt;&lt;/b&gt;" style="text;html=1;align=center;verticalAlign=middle;resizable=0;points=[];autosize=1;strokeColor=none;fillColor=none;" vertex="1" parent="WIyWlLk6GJQsqaUBKTNV-1">
          <mxGeometry x="796.5" y="370" width="40" height="30" as="geometry" />
        </mxCell>
        <mxCell id="J1vwhCZDm-6XGJKoo7b1-100" style="edgeStyle=orthogonalEdgeStyle;rounded=0;orthogonalLoop=1;jettySize=auto;html=1;entryX=1;entryY=0.5;entryDx=0;entryDy=0;" edge="1" parent="WIyWlLk6GJQsqaUBKTNV-1" source="J1vwhCZDm-6XGJKoo7b1-98" target="J1vwhCZDm-6XGJKoo7b1-95">
          <mxGeometry relative="1" as="geometry">
            <Array as="points">
              <mxPoint x="1123" y="270" />
              <mxPoint x="1123" y="400" />
            </Array>
          </mxGeometry>
        </mxCell>
        <mxCell id="J1vwhCZDm-6XGJKoo7b1-98" value="&lt;div style=&quot;text-align: justify;&quot;&gt;sumBetween = sumBetween + nums[i]&lt;/div&gt;" style="rounded=0;whiteSpace=wrap;html=1;" vertex="1" parent="WIyWlLk6GJQsqaUBKTNV-1">
          <mxGeometry x="850" y="240" width="229" height="60" as="geometry" />
        </mxCell>
      </root>
    </mxGraphModel>
  </diagram>
</mxfile>
